PathFileType	4	(X/Y/Z)	marker_experimental.trc																																																																																																																
DataRate	CameraRate	NumFrames	NumMarkers	Units	OrigDataRate	OrigDataStartFrame	OrigNumFrames																																																																																																												
200	200	5	38	mm	200	451	600																																																																																																												
Frame#	Time	C7			T10			CLAV			STRN			RBAK			LASI			RASI			SACR			LT1			LT2			LT3			LS1			LS2			LS3			LHEE			LTOE			RT1			RT2			RT3			RS1			RS2			RS3			RHEE			RTOE			LKNE			LKNM			LANK			LANM			RKNM			RKNE			RANM			RANK			LAJC			LKJC			RAJC			RKJC			RHJC			LHJC		
		X1	Y1	Z1	X2	Y2	Z2	X3	Y3	Z3	X4	Y4	Z4	X5	Y5	Z5	X6	Y6	Z6	X7	Y7	Z7	X8	Y8	Z8	X9	Y9	Z9	X10	Y10	Z10	X11	Y11	Z11	X12	Y12	Z12	X13	Y13	Z13	X14	Y14	Z14	X15	Y15	Z15	X16	Y16	Z16	X17	Y17	Z17	X18	Y18	Z18	X19	Y19	Z19	X20	Y20	Z20	X21	Y21	Z21	X22	Y22	Z22	X23	Y23	Z23	X24	Y24	Z24	X25	Y25	Z25	X26	Y26	Z26	X27	Y27	Z27	X28	Y28	Z28	X29	Y29	Z29	X30	Y30	Z30	X31	Y31	Z31	X32	Y32	Z32	X33	Y33	Z33	X34	Y34	Z34	X35	Y35	Z35	X36	Y36	Z36	X37	Y37	Z37	X38	Y38	Z38
																																																																																																																			
451	2.25	-406.414429	994.60437	796.769165	-397.001526	820.251038	761.221802	-409.086426	949.788391	912.322693	-403.942017	819.981384	953.009033	-492.931702	936.105469	766.767639	-291.871857	653.663086	895.639832	-506.750458	649.839294	894.971497	-398.019165	698.98114	744.623535	-229.84314	484.874237	882.836243	-225.460419	396.110352	840.088989	-234.916809	411.084412	982.665649	-221.290085	236.651627	863.628052	-209.236481	204.886032	745.572998	-238.005051	140.507294	870.799377	-281.978241	59.047039	713.248169	-274.813324	49.144077	853.093567	-552.967957	488.443481	865.233459	-536.440002	402.04007	826.142761	-559.319153	422.64679	964.119995	-548.711853	252.279694	895.37854	-569.185242	219.650406	778.164612	-535.792358	157.199493	902.485718	-494.877411	57.581928	733.433228	-492.416168	49.475578	875.784729	-233.040695	329.616913	903.256836	-328.202118	305.57251	934.446289	-251.57811	43.928951	755.160461	-319.108398	40.550789	760.790833	-432.80072	319.343842	938.500061	-537.454346	324.504242	914.917603	-455.127686	56.878063	782.94397	-527.977234	44.706566	780.465576	-285.343254	42.23987	757.975647	-280.621406	317.594712	918.851562	-491.55246	50.792315	781.704773	-485.127533	321.924042	926.708832	-476.282467	592.731856	826.918401	-319.864972	595.515325	827.404905
452	2.255	-406.426025	994.607361	796.799194	-397.011353	820.261169	761.227295	-409.124817	949.779053	912.332275	-403.991241	819.964294	953.00177	-492.940216	936.106262	766.758606	-291.910217	653.653992	895.634705	-506.795746	649.831543	894.939087	-398.040497	698.995056	744.609924	-229.866669	484.878387	882.854065	-225.482315	396.110565	840.088806	-234.968719	411.07193	982.667908	-221.302765	236.650131	863.636841	-209.245499	204.884888	745.575439	-238.015869	140.5242	870.767944	-281.975189	59.047009	713.244263	-274.818604	49.13718	853.0896	-552.997742	488.444519	865.190247	-536.459167	402.034088	826.11499	-559.363708	422.658081	964.083252	-548.749207	252.274109	895.357849	-569.202148	219.643036	778.152771	-535.811646	157.192917	902.483459	-494.870026	57.567345	733.433716	-492.423584	49.472672	875.78363	-233.073456	329.607025	903.247986	-328.24707	305.540863	934.414368	-251.583145	43.92313	755.157227	-319.119446	40.544407	760.787354	-432.831055	319.370453	938.497803	-537.48584	324.508667	914.892761	-455.15036	56.891079	782.918152	-527.978699	44.702888	780.456299	-285.351295	42.233768	757.972291	-280.660263	317.573944	918.831177	-491.564529	50.796983	781.687225	-485.158448	321.93956	926.695282	-476.318435	592.731892	826.880471	-319.896372	595.514376	827.386834
453	2.26	-406.435455	994.611023	796.828613	-397.020874	820.272461	761.232056	-409.164734	949.76825	912.342346	-404.041016	819.946533	952.986572	-492.946625	936.108398	766.750244	-291.947876	653.64801	895.63446	-506.840485	649.824463	894.904907	-398.059753	699.008545	744.596802	-229.889236	484.88092	882.8703	-225.502808	396.116302	840.085022	-235.018341	411.061493	982.667419	-221.31601	236.649704	863.642883	-209.25705	204.878357	745.578003	-238.023132	140.544434	870.726074	-281.96817	59.047058	713.245178	-274.825775	49.12878	853.084717	-553.025696	488.446045	865.153076	-536.477173	402.027161	826.088074	-559.408264	422.668762	964.058105	-548.783997	252.271149	895.335938	-569.215942	219.633728	778.14386	-535.834412	157.177979	902.495605	-494.862579	57.555119	733.431824	-492.429504	49.469925	875.78302	-233.10376	329.592682	903.234375	-328.289764	305.511475	934.383789	-251.586823	43.919159	755.153809	-319.129028	40.539524	760.783569	-432.863342	319.390594	938.502502	-537.518188	324.50827	914.868835	-455.165649	56.898449	782.900757	-527.978027	44.699162	780.450256	-285.357926	42.229342	757.968689	-280.696762	317.552078	918.809082	-491.571838	50.798806	781.675506	-485.190765	321.949432	926.685669	-476.351044	592.731825	826.842536	-319.924316	595.515099	827.373599
454	2.265	-406.443085	994.61554	796.85675	-397.029999	820.284973	761.235718	-409.203766	949.753601	912.352478	-404.091644	819.927124	952.963379	-492.9505	936.111938	766.743286	-291.985138	653.644531	895.639099	-506.882996	649.818481	894.8703	-398.076324	699.021057	744.584351	-229.908997	484.881836	882.88501	-225.521591	396.12793	840.077515	-235.064911	411.056519	982.661194	-221.330154	236.651535	863.645447	-209.268311	204.87001	745.579041	-238.027039	140.563995	870.681824	-281.960663	59.046005	713.248413	-274.833618	49.120319	853.079224	-553.051208	488.447845	865.121704	-536.493958	402.019409	826.062134	-559.450684	422.675385	964.043945	-548.813782	252.270096	895.314209	-569.226074	219.621841	778.135986	-535.859436	157.166031	902.504517	-494.855927	57.545841	733.427856	-492.433624	49.46759	875.782837	-233.128021	329.579895	903.222839	-328.329529	305.487213	934.354614	-251.589355	43.917175	755.150452	-319.135834	40.53632	760.779358	-432.899536	319.40097	938.515625	-537.549072	324.504181	914.84613	-455.168335	56.895485	782.898254	-527.975952	44.694977	780.447693	-285.362595	42.226748	757.964905	-280.728775	317.533554	918.788726	-491.572144	50.795231	781.672973	-485.224304	321.952575	926.680877	-476.37965	592.732277	826.806066	-319.949471	595.517366	827.365696
455	2.27	-406.449615	994.620972	796.883301	-397.038818	820.298401	761.238159	-409.23996	949.73468	912.362854	-404.143036	819.905029	952.934631	-492.952087	936.116882	766.73761	-292.022369	653.643066	895.647339	-506.924042	649.815979	894.836487	-398.089996	699.032166	744.572815	-229.926315	484.882141	882.899902	-225.540176	396.142242	840.069458	-235.108826	411.058289	982.649658	-221.345322	236.656006	863.644714	-209.278961	204.866211	745.577942	-238.029434	140.579453	870.644226	-281.952606	59.04414	713.251587	-274.840393	49.113194	853.073914	-553.074158	488.449554	865.09491	-536.509521	402.01123	826.037659	-559.489319	422.67627	964.035767	-548.837158	252.268478	895.293701	-569.233276	219.608551	778.126892	-535.877686	157.170364	902.492004	-494.850708	57.539829	733.422546	-492.436005	49.465591	875.782715	-233.148148	329.572784	903.221252	-328.366821	305.469238	934.326416	-251.591064	43.91716	755.147461	-319.139313	40.534546	760.774658	-432.939209	319.402069	938.535645	-537.576599	324.497711	914.824646	-455.15918	56.886997	782.906677	-527.973145	44.68996	780.44812	-285.365188	42.225853	757.96106	-280.757485	317.521011	918.773834	-491.566163	50.788478	781.677398	-485.257904	321.94989	926.680145	-476.406509	592.73454	826.772503	-319.973823	595.520379	827.362744
